<?xml version="1.0" encoding="UTF-8" standalone="no"?>
<svg
   xmlns:dc="http://purl.org/dc/elements/1.1/"
   xmlns:cc="http://creativecommons.org/ns#"
   xmlns:rdf="http://www.w3.org/1999/02/22-rdf-syntax-ns#"
   xmlns:svg="http://www.w3.org/2000/svg"
   xmlns="http://www.w3.org/2000/svg"
   xmlns:sodipodi="http://sodipodi.sourceforge.net/DTD/sodipodi-0.dtd"
   xmlns:inkscape="http://www.inkscape.org/namespaces/inkscape"
   id="Layer_1"
   data-name="Layer 1"
   viewBox="0 0 24 24"
   version="1.1"
   sodipodi:docname="telegram.svg"
   inkscape:version="1.0.2 (e86c870879, 2021-01-15, custom)">
  <metadata
     id="metadata11">
    <rdf:RDF>
      <cc:Work
         rdf:about="">
        <dc:format>image/svg+xml</dc:format>
        <dc:type
           rdf:resource="http://purl.org/dc/dcmitype/StillImage" />
      </cc:Work>
    </rdf:RDF>
  </metadata>
  <defs
     id="defs9" />
  <sodipodi:namedview
     pagecolor="#ffffff"
     bordercolor="#666666"
     borderopacity="1"
     objecttolerance="10"
     gridtolerance="10"
     guidetolerance="10"
     inkscape:pageopacity="0"
     inkscape:pageshadow="2"
     inkscape:window-width="1920"
     inkscape:window-height="1013"
     id="namedview7"
     showgrid="false"
     inkscape:zoom="29.791667"
     inkscape:cx="12"
     inkscape:cy="12"
     inkscape:window-x="1080"
     inkscape:window-y="322"
     inkscape:window-maximized="1"
     inkscape:current-layer="Layer_1" />
  <title
     id="title2">Telegram Glyph</title>
  <path
     d="M11.99432,2a10,10,0,1,0,10,10A9.99917,9.99917,0,0,0,11.99432,2Zm3.17951,15.15247a.70547.70547,0,0,1-1.002.3515l-2.71467-2.10938L9.71484,17.002a.29969.29969,0,0,1-.285.03894l.334-2.98846.01069.00848.00683-.059s4.885-4.44751,5.084-4.637c.20147-.189.135-.23.135-.23.01147-.23053-.36152,0-.36152,0L8.16632,13.299l-2.69549-.918s-.414-.1485-.453-.475c-.041-.324.46649-.5.46649-.5l10.717-4.25751s.881-.39252.881.25751Z"
     id="path4"
     style="fill:#ff7900;fill-opacity:1" />
</svg>
