<?xml version="1.0" encoding="UTF-8" standalone="no"?>
<svg
   xmlns:dc="http://purl.org/dc/elements/1.1/"
   xmlns:cc="http://creativecommons.org/ns#"
   xmlns:rdf="http://www.w3.org/1999/02/22-rdf-syntax-ns#"
   xmlns:svg="http://www.w3.org/2000/svg"
   xmlns="http://www.w3.org/2000/svg"
   xmlns:sodipodi="http://sodipodi.sourceforge.net/DTD/sodipodi-0.dtd"
   xmlns:inkscape="http://www.inkscape.org/namespaces/inkscape"
   viewBox="0 0 20 20"
   version="1.1"
   id="svg4"
   sodipodi:docname="facebook.svg"
   inkscape:version="1.0.2 (e86c870879, 2021-01-15, custom)">
  <metadata
     id="metadata10">
    <rdf:RDF>
      <cc:Work
         rdf:about="">
        <dc:format>image/svg+xml</dc:format>
        <dc:type
           rdf:resource="http://purl.org/dc/dcmitype/StillImage" />
        <dc:title></dc:title>
      </cc:Work>
    </rdf:RDF>
  </metadata>
  <defs
     id="defs8" />
  <sodipodi:namedview
     pagecolor="#ffffff"
     bordercolor="#666666"
     borderopacity="1"
     objecttolerance="10"
     gridtolerance="10"
     guidetolerance="10"
     inkscape:pageopacity="0"
     inkscape:pageshadow="2"
     inkscape:window-width="1920"
     inkscape:window-height="1013"
     id="namedview6"
     showgrid="false"
     inkscape:zoom="12.639534"
     inkscape:cx="-2.4528076"
     inkscape:cy="8.2303778"
     inkscape:window-x="1080"
     inkscape:window-y="322"
     inkscape:window-maximized="1"
     inkscape:current-layer="svg4"
     inkscape:document-rotation="0" />
  <path
     fill="#000000"
     fill-opacity="1"
     stroke-width="0.0872671"
     stroke-linejoin="round"
     d="m 7.2337609,5.0732904 c 0,0.417661 0.014704,2.461064 0.014704,2.461064 H 5.5031231 v 2.6180136 l 1.7306378,-0.0048 0.014704,8.295176 H 10.73915 v -8.290376 l 2.235609,-0.0048 c 0,0 0.168862,-1.1497006 0.27332,-2.6132136 -0.299936,0 -2.508929,0 -2.508929,0 0,0 -0.05677,-1.812931 -0.05677,-2.097378 0,-0.285189 0.37455,-0.668946 0.744825,-0.668946 0.369576,0 1.149613,0 1.871793,0 0,-0.380048 0,-1.693244 0,-2.906039 -0.964259,0 -2.061163,0 -2.544971,0 -3.6052232,0 -3.5202687,2.794032 -3.5202683,3.2113 z"
     id="path2-3"
     style="fill:#ff7900;fill-opacity:1" />
</svg>
